<svg xmlns="http://www.w3.org/2000/svg" width="129" height="84" viewBox="0 0 129 84">
    <g fill="#5BBE3F" fill-rule="evenodd">
        <path d="M12.795 52.554c4.49 0 8.978-.114 13.458 0 2.894.096 4.21-1.005 4.498-3.93.32-3.475.903-6.92 1.743-10.307.296-1.153 1.813-1.992 2.772-2.979.871 1.162 2.458 2.324 2.458 3.494 0 3.022-.689 6.044-1.133 9.066-.488 3.32.67 4.953 4.244 4.664 2.415-.192 4.847 0 7.967 0-2.188-7.572 2.876-14.944-1.7-21.18 1.84-3.494 4.106-6.428 5.047-9.774 2.258-8.044-1.368-12.752-9.736-12.979-8.367-.227-16.56-.087-24.832-.104a13.919 13.919 0 0 1-4.358-.48A25.526 25.526 0 0 1 33.121.733c11.444.62 20.221 6.035 25.52 16.333 1.509 2.934 3.278 3.86 6.416 3.843 17.136-.111 34.278-.111 51.426 0 11.505.052 13.344 2.227 11.61 13.538a117.568 117.568 0 0 1-2.302 11.983c-1.603 6.114-4.907 8.734-11.209 9.075-4.924.244-9.875.122-14.817.122-26.864 0-53.736 0-80.599-.052-2.24 0-4.48-.874-6.72-1.284l.348-1.738zm101.754-28.36c-6.538-.184-6.529-.184-7.566 6.114-.732 4.437-1.526 8.856-2.258 13.293-1.595 9.608-1.551 9.608 8.29 8.883 4.358-.323 8.193-1.843 9.326-6.411a103.32 103.32 0 0 0 2.562-15.399c.358-3.93-2.022-6.2-6.005-6.49-1.456-.078-2.911.018-4.358.018l.009-.008zM51.365 51.977c3.486.751 6.554 1.747 7.949-2.795a3.112 3.112 0 0 1 2.475-1.668 2.985 2.985 0 0 1 1.97 2.122c.384 3.669 3.12 3.223 5.178 2.7 1.037-.263 2.283-2.403 2.257-3.66-.14-6.83-.523-13.66-1.15-20.465-.131-1.44-1.517-3.773-2.572-3.93-2.615-.367-5.813-1.389-7.252 2.62-2.615 7.398-5.57 14.674-8.324 22.028-.272 1-.453 2.023-.54 3.057l.009-.009zm33.252-27.95c-8.062 0-7.069-.663-8.307 6.988-.923 5.738-1.795 11.486-2.902 17.18-.645 3.328.453 4.437 3.783 4.367 3.33-.07 3.486-2.262 3.922-4.611.497-2.83.044-5.905 4.672-6.341 5.927-.56 9.379-5.582 8.925-11.407-.357-4.498-2.867-6.036-10.102-6.132l.009-.043zm20.344 1.87c-.706-.498-1.595-1.642-2.615-1.747-2.014-.227-4.498-.873-5.02 2.463-1.177 7.442-2.555 14.848-3.592 22.307-.148 1.083 1.255 3.424 1.656 3.363 1.874-.288 5.003-.874 5.23-1.965 1.743-7.73 2.876-15.635 4.34-24.377v-.044z"/>
        <path d="M24.885 21.084c5.456 2.848-20.92 0-20.92 0s15.463-2.847 20.92 0zM21.651 33.827S3.826 35.024 2.074 32.631c-1.751-2.393 15.262-.266 19.612 0 4.35.266-.035 1.196-.035 1.196zM36.102 26.341c-1.631-.555 1.778-9.167 2.31-8.983 1.133.384 2.964.333 3.873 2.212.564 2.263.003 4.362-2.319 5.516-2.321 1.153-3.249 1.465-3.864 1.255zM23.455 27.679c6.616 2.498-21.224 0-21.224 0s14.609-2.498 21.224 0zM6.276 45.863c-1.75-2.253 11.707-.154 13.257 0 1.55.154.48 1.363.48 1.363-1.134.48-2.337 1.502-3.374 1.345-3.312-.48-8.613-.455-10.363-2.708zM24.405 14.621c6.686 2.629-16.796 0-16.796 0s10.111-2.629 16.796 0zM20.152 40.596c-5.644.3-12.065.51-16.343 0-4.278-.509-4.064-1.707.122-1.93 4.186-.222 13.894.77 16.3 1.057 2.404.286 5.565.573-.08.873zM62.22 36.633c.27-.873 1.735-4.932 2.267-4.749 1.133.385 1.206 5.605 1.485 6.679.427 1.71-2.532 2.458-3.91 2.261-1.377-.197-.11-3.027.157-4.19zM81.932 36.735c.102-1.235.81-5.69 1.038-6.682.136-.442.648-2.278 2.177-2.278 1.53 0 2.611 2.234 2.749 2.764 0 3.497-1.056 6.03-5.964 6.196zM114.618 30.692c4.272-1.42 2.066 12.88-1.884 14.785-3.951 1.905.24-14.239 1.884-14.785zM20.669 67.84a.27.27 0 0 1 .229.108.315.315 0 0 1 .054.257l-.31 1.43a.43.43 0 0 1-.156.257.422.422 0 0 1-.277.108h-6.25a.289.289 0 0 1-.236-.108.302.302 0 0 1-.061-.257l1.863-8.72a.43.43 0 0 1 .155-.257.422.422 0 0 1 .277-.108h1.768c.1 0 .178.036.237.108a.302.302 0 0 1 .06.256l-1.471 6.926h4.118zm1.89-3.767a6.25 6.25 0 0 1 .573-1.424c.248-.445.567-.832.959-1.16.391-.33.86-.59 1.404-.784.544-.193 1.181-.29 1.91-.29.594 0 1.13.097 1.607.29.477.194.875.455 1.194.783.32.329.55.716.689 1.161.14.446.169.92.088 1.424a25.664 25.664 0 0 1-.514 2.404 6.07 6.07 0 0 1-.58 1.424 4.303 4.303 0 0 1-.965 1.168c-.392.333-.86.593-1.404.782-.545.19-1.181.284-1.91.284a4.33 4.33 0 0 1-1.607-.284 3.26 3.26 0 0 1-1.188-.782 2.965 2.965 0 0 1-.682-1.168 3.075 3.075 0 0 1-.087-1.424c.054-.37.128-.765.222-1.189.095-.423.191-.827.29-1.215zm5.426 2.336a21.65 21.65 0 0 0 .405-1.748c.037-.194.063-.367.081-.52a2.025 2.025 0 0 0-.013-.621 1.098 1.098 0 0 0-.223-.493 1.149 1.149 0 0 0-.452-.33 1.785 1.785 0 0 0-.702-.122 2.025 2.025 0 0 0-1.337.452c-.17.14-.314.304-.431.493a2.404 2.404 0 0 0-.27.621 15.273 15.273 0 0 0-.284 1.12c-.045.208-.085.41-.122.608a7.956 7.956 0 0 0-.08.54c-.055.45.022.823.229 1.12.207.298.59.446 1.147.446.568 0 1.017-.148 1.35-.445.334-.298.567-.671.702-1.121zM37.828 70c-.153 0-.265-.038-.337-.115a1.454 1.454 0 0 1-.176-.223l-2.362-4.59-.972 4.563a.43.43 0 0 1-.156.257.422.422 0 0 1-.276.108h-1.769a.289.289 0 0 1-.236-.108.302.302 0 0 1-.061-.257l1.863-8.72a.43.43 0 0 1 .155-.257.422.422 0 0 1 .277-.108h1.134c.153 0 .268.04.344.122a.713.713 0 0 1 .142.189l2.39 4.617.971-4.563a.43.43 0 0 1 .156-.257.422.422 0 0 1 .276-.108h1.769c.099 0 .178.036.236.108a.302.302 0 0 1 .061.256l-1.863 8.721a.43.43 0 0 1-.155.257.422.422 0 0 1-.277.108h-1.134zm8.977-7.425c-.306 0-.569.043-.79.128a1.873 1.873 0 0 0-.978.844 2.89 2.89 0 0 0-.257.594c-.045.117-.09.279-.135.486l-.141.641c-.05.22-.092.437-.129.648a33.45 33.45 0 0 0-.08.493 2.187 2.187 0 0 0 0 .594c.027.189.09.355.189.5.099.144.245.258.438.344.194.085.439.128.736.128.477 0 .904-.112 1.283-.337.378-.226.625-.608.742-1.148h-1.134a.289.289 0 0 1-.236-.108.271.271 0 0 1-.047-.257l.297-1.43a.421.421 0 0 1 .162-.257.448.448 0 0 1 .283-.108h3.267a.27.27 0 0 1 .23.108.315.315 0 0 1 .053.257l-.364 1.728c-.252 1.16-.794 2.07-1.627 2.727-.832.657-1.91.985-3.233.985a3.865 3.865 0 0 1-1.58-.31 3.472 3.472 0 0 1-1.18-.838 3.137 3.137 0 0 1-.777-2.645c.054-.37.128-.765.223-1.189.094-.423.191-.827.29-1.215a5.41 5.41 0 0 1 .56-1.383c.248-.428.567-.801.959-1.12.391-.32.86-.57 1.404-.75.544-.18 1.176-.27 1.897-.27a4.199 4.199 0 0 1 2.747.979c.328.283.573.594.736.931.162.338.22.66.175.965a.302.302 0 0 1-.128.21.385.385 0 0 1-.236.087h-1.796c-.135 0-.232-.04-.29-.121a7.894 7.894 0 0 1-.169-.243 1.346 1.346 0 0 0-.169-.236 1.104 1.104 0 0 0-.256-.21 1.32 1.32 0 0 0-.385-.148 2.45 2.45 0 0 0-.553-.054zM59.86 60.55c.549 0 1.064.099 1.546.297.481.198.888.472 1.221.823a3.197 3.197 0 0 1 .824 2.781 28.83 28.83 0 0 0-.095.52c-.027.158-.056.308-.087.453a29.06 29.06 0 0 1-.223.944 6.179 6.179 0 0 1-.594 1.506 3.986 3.986 0 0 1-.959 1.14 4.161 4.161 0 0 1-1.397.73c-.544.17-1.176.256-1.896.256h-3.78a.289.289 0 0 1-.237-.108.302.302 0 0 1-.06-.257l1.862-8.72a.43.43 0 0 1 .156-.257.422.422 0 0 1 .276-.108h3.443zm1.12 3.713c.163-1.036-.341-1.553-1.511-1.553H58.09l-1.08 5.13h1.445c1.134 0 1.831-.517 2.093-1.553a54.724 54.724 0 0 0 .431-2.025zM64.314 70a.289.289 0 0 1-.236-.108.302.302 0 0 1-.061-.257l1.863-8.72a.43.43 0 0 1 .155-.257.422.422 0 0 1 .277-.108h1.769c.099 0 .177.036.236.108a.302.302 0 0 1 .06.256l-1.862 8.721a.43.43 0 0 1-.156.257.422.422 0 0 1-.276.108h-1.769zm9.531-9.585c.54 0 1.033.083 1.478.25.446.166.826.38 1.141.641.315.261.553.547.716.857.162.31.234.614.215.912a.37.37 0 0 1-.135.209.343.343 0 0 1-.216.087h-1.768a.629.629 0 0 1-.29-.053.908.908 0 0 1-.318-.297.94.94 0 0 0-.202-.196 1.25 1.25 0 0 0-.364-.176 1.917 1.917 0 0 0-.581-.074c-.171 0-.337.011-.5.034-.162.022-.31.058-.445.108a.914.914 0 0 0-.337.209.643.643 0 0 0-.176.337.442.442 0 0 0 .054.345c.063.094.187.182.371.263.185.081.437.16.756.236.32.077.718.164 1.195.264.945.207 1.615.54 2.012.999.396.459.504 1.111.324 1.957-.199.918-.687 1.615-1.465 2.093-.779.477-1.843.715-3.193.715-.54 0-1.042-.081-1.505-.243a4.126 4.126 0 0 1-1.195-.635 2.837 2.837 0 0 1-.77-.897 1.83 1.83 0 0 1-.229-1.02.37.37 0 0 1 .135-.209.343.343 0 0 1 .216-.088h1.768c.127 0 .223.016.29.048a.542.542 0 0 1 .183.142.986.986 0 0 1 .128.175c.05.081.126.164.23.25.103.085.24.16.412.222.17.064.391.095.661.095.477 0 .886-.052 1.228-.155.343-.104.545-.29.608-.56a.36.36 0 0 0-.101-.345c-.095-.094-.254-.182-.48-.263a7.136 7.136 0 0 0-.857-.236c-.346-.077-.753-.169-1.221-.277-.883-.198-1.488-.544-1.816-1.04-.329-.495-.408-1.129-.237-1.903.082-.387.228-.75.44-1.087.21-.337.492-.632.843-.884a4.14 4.14 0 0 1 1.269-.594c.495-.144 1.071-.216 1.728-.216zm12.609.135c.099 0 .178.036.236.108a.302.302 0 0 1 .061.256l-.31 1.431a.421.421 0 0 1-.162.257.448.448 0 0 1-.284.108h-2.376l-1.471 6.925a.43.43 0 0 1-.156.257.422.422 0 0 1-.276.108h-1.769a.289.289 0 0 1-.236-.108.302.302 0 0 1-.061-.257l1.472-6.925h-2.376a.27.27 0 0 1-.23-.108.315.315 0 0 1-.054-.256l.31-1.431a.43.43 0 0 1 .156-.257.422.422 0 0 1 .277-.108h7.249zm5.778 0c.18 0 .306.05.378.149a.729.729 0 0 1 .135.297l1.134 8.505c.045.333-.067.499-.337.499h-1.634c-.18 0-.3-.038-.358-.115a.468.468 0 0 1-.101-.223l-.148-1.12H87.71l-.608 1.12a.744.744 0 0 1-.189.223c-.09.077-.225.115-.405.115h-1.89c-.126 0-.202-.045-.23-.135-.027-.09 0-.211.082-.364l4.752-8.506c.054-.099.139-.197.256-.296a.666.666 0 0 1 .446-.149h2.308zm-3.375 5.9h2.187l-.405-3.24-1.782 3.24zM101.426 70c-.154 0-.266-.038-.338-.115a1.454 1.454 0 0 1-.175-.223l-2.363-4.59-.972 4.563a.43.43 0 0 1-.155.257.422.422 0 0 1-.277.108h-1.768a.289.289 0 0 1-.237-.108.302.302 0 0 1-.06-.257l1.863-8.72a.43.43 0 0 1 .155-.257.422.422 0 0 1 .277-.108h1.134c.153 0 .267.04.344.122a.713.713 0 0 1 .142.189l2.389 4.617.972-4.563a.43.43 0 0 1 .155-.257.422.422 0 0 1 .277-.108h1.769c.099 0 .177.036.236.108a.302.302 0 0 1 .06.256l-1.862 8.721a.43.43 0 0 1-.156.257.422.422 0 0 1-.276.108h-1.135zm6.939-5.859a8.344 8.344 0 0 0-.129.486c-.05.207-.099.42-.148.641-.05.22-.092.437-.128.648-.036.212-.063.376-.081.493-.028.207-.03.405-.007.594.022.189.085.355.189.5.103.144.25.258.438.344.19.085.437.128.743.128s.565-.036.776-.108c.212-.072.392-.16.54-.263.149-.104.27-.218.365-.344.094-.127.173-.243.236-.352a1.3 1.3 0 0 1 .216-.303c.063-.059.171-.088.324-.088h1.769c.08 0 .146.03.195.088a.23.23 0 0 1 .047.209 4.06 4.06 0 0 1-1.566 2.349c-.405.297-.88.533-1.424.709a5.85 5.85 0 0 1-1.802.263 4.15 4.15 0 0 1-1.586-.29 3.343 3.343 0 0 1-1.181-.79 3.034 3.034 0 0 1-.689-1.168 2.967 2.967 0 0 1-.094-1.41c.053-.37.128-.765.222-1.189.095-.423.191-.827.29-1.215.127-.495.315-.965.568-1.41.252-.446.573-.835.965-1.168.391-.333.86-.596 1.404-.79.544-.193 1.176-.29 1.897-.29.522 0 1.023.088 1.505.263.481.176.895.412 1.242.709.346.297.605.648.776 1.053.171.405.212.837.122 1.296a.37.37 0 0 1-.135.21.358.358 0 0 1-.23.087h-1.769c-.153 0-.247-.03-.283-.088a.815.815 0 0 1-.081-.303 2.496 2.496 0 0 0-.088-.352.854.854 0 0 0-.216-.344 1.241 1.241 0 0 0-.432-.263c-.184-.072-.43-.108-.736-.108a2.24 2.24 0 0 0-.796.128c-.225.086-.418.2-.58.344-.163.145-.295.311-.399.5a3.132 3.132 0 0 0-.25.594zm13.378 3.699a.27.27 0 0 1 .23.108c.053.072.072.157.053.257l-.31 1.43a.43.43 0 0 1-.155.257.422.422 0 0 1-.277.108h-6.399a.289.289 0 0 1-.236-.108.302.302 0 0 1-.061-.257l1.863-8.72a.43.43 0 0 1 .155-.257.422.422 0 0 1 .277-.108h6.291c.099 0 .178.036.236.108a.302.302 0 0 1 .061.256l-.31 1.431a.421.421 0 0 1-.162.257.448.448 0 0 1-.284.108h-4.158l-.31 1.458h3.86c.1 0 .178.036.237.108a.302.302 0 0 1 .06.257l-.31 1.43a.421.421 0 0 1-.162.257.448.448 0 0 1-.284.108h-3.86l-.311 1.512h4.266zM16.872 79.396l3.096-3.972.198-.192a.524.524 0 0 1 .378-.132h.972c.088 0 .158.032.21.096.052.064.07.14.054.228l-1.656 7.752a.383.383 0 0 1-.138.228.375.375 0 0 1-.246.096h-.972a.257.257 0 0 1-.21-.096.269.269 0 0 1-.054-.228l.996-4.692-2.088 2.7c-.056.072-.128.14-.216.204a.497.497 0 0 1-.3.096h-.72c-.112 0-.196-.034-.252-.102a.708.708 0 0 1-.12-.198l-.936-2.7-.996 4.692a.383.383 0 0 1-.138.228.375.375 0 0 1-.246.096h-.972a.257.257 0 0 1-.21-.096.269.269 0 0 1-.054-.228l1.656-7.752a.383.383 0 0 1 .138-.228.375.375 0 0 1 .246-.096h.756c.16 0 .272.042.336.126.064.084.104.15.12.198l1.368 3.972zm6-1.164c.12-.448.284-.87.492-1.266.208-.396.476-.74.804-1.032a3.71 3.71 0 0 1 1.182-.696c.46-.172.998-.258 1.614-.258.528 0 .992.084 1.392.252.4.168.73.4.99.696.26.296.44.64.54 1.032.1.392.114.816.042 1.272a21.11 21.11 0 0 1-.21 1.074c-.044.196-.088.386-.132.57-.044.184-.082.352-.114.504-.12.448-.278.87-.474 1.266-.196.396-.456.74-.78 1.032a3.544 3.544 0 0 1-1.182.69c-.464.168-1.02.252-1.668.252-.528 0-.992-.084-1.392-.252a2.646 2.646 0 0 1-.984-.69 2.45 2.45 0 0 1-.534-1.032 3.11 3.11 0 0 1-.042-1.266c.024-.152.054-.32.09-.504l.114-.57a17.485 17.485 0 0 1 .252-1.074zm5.424.06c.088-.576-.004-1.022-.276-1.338-.272-.316-.688-.474-1.248-.474s-1.044.158-1.452.474c-.408.316-.688.762-.84 1.338a15.032 15.032 0 0 0-.432 2.028c-.096.576-.006 1.02.27 1.332.276.312.694.468 1.254.468s1.042-.156 1.446-.468c.404-.312.686-.756.846-1.332a23.06 23.06 0 0 0 .432-2.028zm5.304 2.832l3.228-5.724c.04-.064.096-.13.168-.198a.402.402 0 0 1 .288-.102h1.032c.136 0 .22.048.252.144.032.096.016.196-.048.3l-4.26 7.548c-.08.136-.158.238-.234.306a.442.442 0 0 1-.306.102h-1.032c-.128 0-.218-.034-.27-.102a.624.624 0 0 1-.102-.306l-1.08-7.548a.361.361 0 0 1 .102-.306.387.387 0 0 1 .294-.138h.828c.12 0 .202.034.246.102a.664.664 0 0 1 .09.198l.804 5.724zm4.944 2.376a.257.257 0 0 1-.21-.096.269.269 0 0 1-.054-.228l1.656-7.752a.383.383 0 0 1 .138-.228.375.375 0 0 1 .246-.096h.972c.088 0 .158.032.21.096.052.064.07.14.054.228L39.9 83.176a.383.383 0 0 1-.138.228.375.375 0 0 1-.246.096h-.972zm8.88 0c-.136 0-.234-.038-.294-.114a1.855 1.855 0 0 1-.126-.174l-2.4-5.124-1.092 5.088a.383.383 0 0 1-.138.228.375.375 0 0 1-.246.096h-.972a.257.257 0 0 1-.21-.096.269.269 0 0 1-.054-.228l1.656-7.752a.383.383 0 0 1 .138-.228.375.375 0 0 1 .246-.096h.696c.136 0 .234.036.294.108.06.072.098.128.114.168l2.436 5.148 1.068-5.1a.383.383 0 0 1 .138-.228.375.375 0 0 1 .246-.096h.972c.088 0 .158.032.21.096.052.064.07.14.054.228l-1.644 7.752a.383.383 0 0 1-.138.228.375.375 0 0 1-.246.096h-.708zm3.816-5.292c.12-.48.29-.918.51-1.314.22-.396.5-.736.84-1.02.34-.284.744-.504 1.212-.66.468-.156 1.014-.234 1.638-.234.664 0 1.208.09 1.632.27.424.18.754.396.99.648s.392.512.468.78c.076.268.102.494.078.678a.365.365 0 0 1-.138.234.39.39 0 0 1-.246.09h-.972c-.088 0-.154-.022-.198-.066a.357.357 0 0 1-.09-.138 2.117 2.117 0 0 0-.078-.21 1.023 1.023 0 0 0-.246-.336 1.63 1.63 0 0 0-.516-.312c-.224-.092-.516-.138-.876-.138-.296 0-.574.042-.834.126-.26.084-.496.204-.708.36a2.17 2.17 0 0 0-.534.564 2.51 2.51 0 0 0-.324.738c-.072.304-.146.63-.222.978a17.11 17.11 0 0 0-.186.978c-.12.664-.032 1.146.264 1.446.296.3.744.45 1.344.45.296 0 .574-.032.834-.096s.496-.168.708-.312a1.96 1.96 0 0 0 .546-.57c.152-.236.264-.526.336-.87l.012-.096H55.02a.24.24 0 0 1-.204-.096.28.28 0 0 1-.048-.228l.18-.852a.374.374 0 0 1 .144-.228.398.398 0 0 1 .252-.096h2.76a.24.24 0 0 1 .204.096.28.28 0 0 1 .048.228l-.276 1.32c-.104.48-.258.922-.462 1.326a3.398 3.398 0 0 1-.81 1.044c-.336.292-.748.52-1.236.684-.488.164-1.064.246-1.728.246-.544 0-1.026-.08-1.446-.24a2.69 2.69 0 0 1-1.032-.672 2.359 2.359 0 0 1-.558-1.038 3.064 3.064 0 0 1-.024-1.326c.024-.152.056-.32.096-.504l.12-.564.12-.564c.04-.184.08-.352.12-.504zm16.368 2.628a.483.483 0 0 1 .174-.234.41.41 0 0 1 .234-.078h.972c.088 0 .16.03.216.09.056.06.068.138.036.234a4.136 4.136 0 0 1-.414.984 3.242 3.242 0 0 1-.762.888c-.32.264-.716.48-1.188.648-.472.168-1.032.252-1.68.252-.52 0-.98-.082-1.38-.246a2.589 2.589 0 0 1-.984-.684 2.449 2.449 0 0 1-.534-1.05 3.427 3.427 0 0 1-.042-1.332c.048-.304.11-.64.186-1.008s.158-.704.246-1.008a5.76 5.76 0 0 1 .534-1.332c.228-.408.51-.758.846-1.05.336-.292.728-.52 1.176-.684.448-.164.964-.246 1.548-.246.592 0 1.096.084 1.512.252.416.168.75.384 1.002.648s.426.562.522.894c.096.332.12.658.072.978a.365.365 0 0 1-.138.234.39.39 0 0 1-.246.09h-.972a.334.334 0 0 1-.216-.078c-.064-.052-.092-.13-.084-.234a1.241 1.241 0 0 0-.066-.468 1 1 0 0 0-.27-.408c-.128-.12-.3-.218-.516-.294a2.403 2.403 0 0 0-.792-.114 2.36 2.36 0 0 0-.846.144 2.322 2.322 0 0 0-.666.384c-.192.16-.352.352-.48.576-.128.224-.228.46-.3.708-.088.304-.17.64-.246 1.008-.076.368-.138.704-.186 1.008-.04.256-.042.494-.006.714.036.22.116.41.24.57.124.16.292.288.504.384.212.096.474.144.786.144.312 0 .592-.038.84-.114a2.44 2.44 0 0 0 .642-.294 1.932 1.932 0 0 0 .726-.876zm3.384-2.604c.12-.448.284-.87.492-1.266.208-.396.476-.74.804-1.032a3.71 3.71 0 0 1 1.182-.696c.46-.172.998-.258 1.614-.258.528 0 .992.084 1.392.252.4.168.73.4.99.696.26.296.44.64.54 1.032.1.392.114.816.042 1.272a21.11 21.11 0 0 1-.21 1.074c-.044.196-.088.386-.132.57-.044.184-.082.352-.114.504-.12.448-.278.87-.474 1.266-.196.396-.456.74-.78 1.032a3.544 3.544 0 0 1-1.182.69c-.464.168-1.02.252-1.668.252-.528 0-.992-.084-1.392-.252a2.646 2.646 0 0 1-.984-.69 2.45 2.45 0 0 1-.534-1.032 3.11 3.11 0 0 1-.042-1.266c.024-.152.054-.32.09-.504l.114-.57a17.485 17.485 0 0 1 .252-1.074zm5.424.06c.088-.576-.004-1.022-.276-1.338-.272-.316-.688-.474-1.248-.474s-1.044.158-1.452.474c-.408.316-.688.762-.84 1.338a15.032 15.032 0 0 0-.432 2.028c-.096.576-.006 1.02.27 1.332.276.312.694.468 1.254.468s1.042-.156 1.446-.468c.404-.312.686-.756.846-1.332a23.06 23.06 0 0 0 .432-2.028zm6.876 1.104l3.096-3.972.198-.192a.524.524 0 0 1 .378-.132h.972c.088 0 .158.032.21.096.052.064.07.14.054.228l-1.656 7.752a.383.383 0 0 1-.138.228.375.375 0 0 1-.246.096h-.972a.257.257 0 0 1-.21-.096.269.269 0 0 1-.054-.228l.996-4.692-2.088 2.7c-.056.072-.128.14-.216.204a.497.497 0 0 1-.3.096h-.72c-.112 0-.196-.034-.252-.102a.708.708 0 0 1-.12-.198l-.936-2.7-.996 4.692a.383.383 0 0 1-.138.228.375.375 0 0 1-.246.096h-.972a.257.257 0 0 1-.21-.096.269.269 0 0 1-.054-.228l1.656-7.752a.383.383 0 0 1 .138-.228.375.375 0 0 1 .246-.096h.756c.16 0 .272.042.336.126.064.084.104.15.12.198l1.368 3.972zm10.38-4.296a4 4 0 0 1 1.218.174c.364.116.666.288.906.516.24.228.406.508.498.84.092.332.09.718-.006 1.158-.096.44-.23.828-.402 1.164-.172.336-.4.618-.684.846a2.992 2.992 0 0 1-1.026.522c-.4.12-.868.18-1.404.18h-2.04l-.576 2.676a.383.383 0 0 1-.138.228.375.375 0 0 1-.246.096H88.8a.257.257 0 0 1-.21-.096.269.269 0 0 1-.054-.228l1.656-7.752a.383.383 0 0 1 .138-.228.375.375 0 0 1 .246-.096h3.096zM91.044 79h1.86c.456 0 .84-.088 1.152-.264.312-.176.516-.492.612-.948.096-.448.026-.758-.21-.93-.236-.172-.582-.258-1.038-.258h-1.86l-.516 2.4zm10.752-3.9c.128 0 .216.034.264.102.048.068.084.17.108.306l1.332 7.584a.316.316 0 0 1-.102.288.413.413 0 0 1-.294.12h-.804c-.16 0-.264-.034-.312-.102a.6.6 0 0 1-.096-.198l-.24-1.332H97.86l-.792 1.332a.948.948 0 0 1-.174.198c-.076.068-.194.102-.354.102h-.96c-.112 0-.192-.046-.24-.138a.253.253 0 0 1 .012-.27l4.548-7.584c.08-.136.158-.238.234-.306a.442.442 0 0 1 .306-.102h1.356zm-.396 5.268l-.588-3.42-2.052 3.42h2.64zm8.796 3.132c-.136 0-.234-.038-.294-.114a1.855 1.855 0 0 1-.126-.174l-2.4-5.124-1.092 5.088a.383.383 0 0 1-.138.228.375.375 0 0 1-.246.096h-.972a.257.257 0 0 1-.21-.096.269.269 0 0 1-.054-.228l1.656-7.752a.383.383 0 0 1 .138-.228.375.375 0 0 1 .246-.096h.696c.136 0 .234.036.294.108.06.072.098.128.114.168l2.436 5.148 1.068-5.1a.383.383 0 0 1 .138-.228.375.375 0 0 1 .246-.096h.972c.088 0 .158.032.21.096.052.064.07.14.054.228l-1.644 7.752a.383.383 0 0 1-.138.228.375.375 0 0 1-.246.096h-.708zm11.148-8.4c.112 0 .192.05.24.15.048.1.04.194-.024.282l-3.924 5.004-.564 2.64a.383.383 0 0 1-.138.228.375.375 0 0 1-.246.096h-.948a.257.257 0 0 1-.21-.096.269.269 0 0 1-.054-.228l.564-2.64-1.764-4.968a.311.311 0 0 1 .072-.33.405.405 0 0 1 .3-.138h.816c.16 0 .27.04.33.12.06.08.098.14.114.18l1.188 3.348 2.616-3.348c.064-.08.134-.15.21-.21.076-.06.194-.09.354-.09h1.068z"/>
    </g>
</svg>
